<!-- NewTaven favicon. -->
<svg xmlns="http://www.w3.org/2000/svg" viewBox="0 0 64 64" role="img" aria-label="NewTaven">
  <rect width="64" height="64" fill="#1F3D2E"/>
  <g transform="translate(32 32) scale(1) translate(-32 -32)">
    <g transform="translate(1.069 2.567) scale(0.06371)">
      <path fill="#FBF9F4" fill-rule="evenodd" d="M163 90h2l3.8 5.5A318 318 0 0 0 233 164l4 3.2a480 480 0 0 0 78.8 53.8l7.4 4c5.8 3 5.8 3 6.8 3l-3.1-2.9c-22.3-20.6-39.1-41.5-47.9-71.1l1-2q7.8 9.1 15.4 18.5a297 297 0 0 0 13.6 15.2l8.4 9.4c10 10.8 21 20 32.6 28.9l3 2.4c37.6 28.8 90.7 45.5 136 55.6l-2-1v-3l-4-1c-2.8-2.2-2.8-2.2-5-5 .2-2.8.2-2.8 1-5 22.9-5.7 52.4 4.1 74.4 9.7l5.6 1.3 1-1-10-6c3.6-2.4 6.8-3 11-4q-8.3-1.8-16.7-2.2c-5.9-.5-8.3-2.7-12.3-6.8l-2-1 1-3-3.2-1.7a34 34 0 0 1-8.8-7.3v-2l3-1-3.2-.6c-4.9-1.8-6.3-4-8.8-8.4v-5c33-1.4 70.7 24.8 98 41 32.1 19 32.1 19 35 19l-2.3-2.1C620 267 620 267 614 255v-3c23.2 2.9 41.9 21.3 59 35.5a141 141 0 0 0 49 28.1 56 56 0 0 1 30.2 24.7 27 27 0 0 1 1.5 20.4c-2.5 5.8-6.6 9.9-11 14.4A78 78 0 0 0 728 399l4.5-.9q11-1.7 22-2.7l8.1-.8c32-2.6 56.1 8 80.4 28.4l2.3 3c3.9 4.3 8.1 5.5 13.4 7.6q10.9 4.1 21.3 9.4l7 3v2l2.6 1.1a62 62 0 0 1 33.7 34.4q1.4 5.7 1.7 11.5l-4-1c-8-1.8-16-2.5-24.2-3a276 276 0 0 1-27.2-2.7c-2.6-.3-2.6-.3-5.6.7h-3l1 2-7-2v5l-3-3v-2h-2l-1 4-1-4a41 41 0 0 0-26.2 16l-4.8 5-1-2q-6.1 9.6-11.2 19.9C803 531 803 531 801 532l1-7-3 3.5a105 105 0 0 1-28 21.5l-8.3 5c-6.5 3.9-6.5 3.9-8.7 5l2-4v-1a47 47 0 0 0-19 24c-2-2-2-2-3-5l-1.5 2c-4 5-7.8 9.8-12.5 14h-2v2l-2-1 2-4-4 3-2-1 5.5-5.3c1.5-1.7 1.5-1.7 1.5-3.7l-3.4 2.4q-7 4.5-14.4 8.4a173 173 0 0 0-36.5 28.4c-8 7.5-17.6 13-27.2 18.3-19.5 11-29 25.5-38.5 45.5l-3.3 6.7-1.4 2.9C593 695 593 695 591 698l4-2 2-1v26l10 3 16.4 5.9c9.5 3.3 18.9 6.6 28.6 9a52 52 0 0 1 26.4 14.8 24 24 0 0 0 13.1 6.6c3.2.9 3.8 2 5.5 4.8 4.4 6.1 10.4 8.8 17 11.9v2l2.3.7c3.3 1.6 4.7 3.2 6.7 6.3 1.7 5.2.4 8.2-2 13l-2-1-.4-2.8c-.6-3.2-.6-3.2-3.6-7.2h-3l1 7c-4 2-4 2-6.5 1.9-2.5-.9-2.5-.9-4.6-3L700 792c-4 1-4 1-7 2v-8l-2.7-.7a15 15 0 0 1-7.3-5.3v-2l-3.5.3a20 20 0 0 1-14.6-6.5c-1.9-1.8-1.9-1.8-4.6-2a22 22 0 0 0-9.6 3A55 55 0 0 1 635 778l-.4 2.3c-.6 2.7-.6 2.7-1.6 5.7l4.3 1.3c3.9 1.2 6 2.6 8.7 5.7l3 2c3.6 2.4 6 5 8 9v7c-2-1-2-1-3.4-3.4-1.6-2.6-1.6-2.6-5.6-4.6l-4 2 1 2 3 1 2 5 5 7a24 24 0 0 1 1 10l-2 4a71 71 0 0 1-4.6-8.2l-1.4-2.7-1-2.1-2.5.1h-3.3l-3.3.2c-2.9-.3-2.9-.3-5.9-3.3l-3.2-4.2-2.8-3.8 1 4c.6 9.1.6 9.1-2 13.1l-2 1.9-.6-4.4-1.4-4.6c-3-1.4-3-1.4-6-2l-2-3-2.4-.9c-4.7-2-6.5-6-9-10.2a17 17 0 0 0-7.6-6.9l-4-5-6.2.8-3.5.4a18 18 0 0 0-8.3 4.8c-3.5.6-3.5.6-7 0-3-2.3-3-2.3-5-5v-3c-3.7 1.6-6.4 2.9-8.4 6.5L549 804c-2.7-2.7-2.3-4.4-2.4-8.2.1-5.5.5-8.8 4.4-12.8 5.1-4.3 8.6-4.4 15.2-4 4.8.2 4.8.2 8.8 0l3-3a525 525 0 0 0-38-24l-2.9-1.6a54 54 0 0 0-12.8-4.9c-5-1.2-8.4-3.1-12.3-6.5v-2h-2v2h-2l-3-4.4c-2.8-4.5-2.8-4.5-5-5.6l-1 5a23 23 0 0 1-2-13h-2l-2 5c-1.8-3.7.2-8.1 1-12h-2l1-9-3.4 2.5C486 710 486 710 484 710l-1-2-3.9 1.9c-5 2.2-9.7 3.2-15.1 4.1 3.4-3.4 6.7-5 11-7-4.4 0-7.4 2-11.4 3.8l-4.5 2.2c-4.1 2-4.1 2-7 3.8L450 718l-2-1 6-6-2.5 1-10.5 4-2.6 1a21 21 0 0 1-13.4 1v-1l4.7-1.3q5.5-1.5 10.3-4.7l-9 1 5-6-3.1 1c-3.5 1-6.3 1.2-9.9 1l5-4c-11.9-.2-22.8 3.2-34.1 6.4A79 79 0 0 1 381 713v-2l12-6-7 1.9-9.1 2.5-9.1 2.4c-9.6 2.4-18.9 4.2-28.8 4.2 2.4-2.4 5-3.5 8-5l-4.5 1.4c-15.9 5-30.7 9.4-47.5 8.6 3-3 5.3-4.3 9-6-14.4-1.2-26.4 7.2-38.5 14-36.3 20-36.3 20-53.5 20 2.9-2.9 6.4-4.2 10-6l-3.5 1.1c-38.6 11.8-38.6 11.8-42.5 9.9l10-6-3.1.7-4.2.9-4 .8c-3.7.6-3.7.6-7.7-.4l33-18-4.2 1.6c-4.8 1.4-4.8 1.4-8.8.4a1422 1422 0 0 1 43.7-27.4 3116 3116 0 0 0 86.3-54q8.3-5 16.4-10.4L353 630l4.8-3 13.2-8c-3.4 0-6.7 1.1-10 2a61 61 0 0 1 8.9-7.6l3-2.1q3-2.3 6.4-4.6A1179 1179 0 0 0 419 577l3.5-2.7L433 566l3.3-2.6q11-9.2 20.4-20 6-6 12.3-11.4-11.6 3.5-23 8.5a96 96 0 0 1-39.3 9.8h-5.5A32 32 0 0 1 388 547c-1.5-2.7-1.5-2.7-2-5l-4 .1c-4.6 0-7.8-.2-12-2.1-4.3-5.4-4.6-10.3-5-17l-3.2-.2c-4.2-.9-5.3-1.6-7.8-4.8a23 23 0 0 1-2-13l-3.3-.3c-3.7-.7-3.7-.7-6.7-3.7q-4.9-11.8-5.8-24.7c-.7-6.9-.7-6.9-4.9-10.4L327 464a44 44 0 0 1-17.6-29.8c-2-4.6-5.2-5.5-9.5-7.7A29 29 0 0 1 285 410c-.7-4-.7-4-1-7l-3.6-1c-11.8-4-24.3-10.4-31.4-21-.4-3-.4-3 0-6l4-3-3.3-1.4A96 96 0 0 1 215 347c-.8-2.6-.8-2.6-1-5 2.9-2.9 5.1-2.4 9.1-2.6l4-.3 2.9-.1-4.7-2C191 323.2 191 323.2 179 311v-5l9-4-5-2.3c-33.3-15.8-33.3-15.8-42-24.7l-1-4c2-2 2-2 6.8-2.2h5.8l5.9.1 4.5.1-18-7v-1l6-1h-2.3a74 74 0 0 1-26.7-7v-1l10-1-5.3-.8c-13.7-2.4-26.2-5-38.7-11.2v-2h5l-3.3-.8c-11.3-3-21.3-7-31.7-12.2l-3.7-1.8L46 218v-1c11.8 1.3 23 4.2 34.5 7l72.1 17 18 4.3q20.7 4.6 41.4 8.7l-8.8-3.7Q192.5 246 182 241v-1l6-1-16-4v-1l10-1-5.8-1a143 143 0 0 1-55.2-21l4-1-4.7-1c-7-1.9-12.8-5.5-18.3-10v-2l2-1-4.7-1.7A23 23 0 0 1 89 187c-3-3-3-3-6.1-5-2.9-2-2.9-2-3.9-4l10 2-3.5-1.4-4.4-2-4.5-1.8C73 173 73 173 72 170l-3.8-3.4A48 48 0 0 1 60 158c15.7 3.1 31.3 13.4 45.4 21A654 654 0 0 0 244 236l-4.6-2.2c-46.7-23-46.7-23-57.4-33.8l14 1-4-.7a67 67 0 0 1-38-19.3l2-1-2.4-1.1A58 58 0 0 1 138 169c3.2-1.6 5.7 0 9 1l-2.8-1.3A64 64 0 0 1 126 157l2-1 3 1-2-1c-14.6-7-23-21.9-30-36l-4-6 2-1c11.6 5.7 21.8 15 32 22.8 48 37 105.7 79.1 164 97.2l-3.3-2c-11.4-6.7-22-14.2-32.7-22l-7.3-5.2q-14.5-10-27.7-21.8l1-2-2.3-1.6-3-2.2-2.9-2a56 56 0 0 1-6.8-6.2l2.4.5c2.6.5 2.6.5 3.6.5l-2.3-1.7c-17-12.4-17-12.4-18.7-19.3l-2.2-1.7c-15.5-12.6-23-36.7-27.8-55.3z M552 688h1v5.7l.3 7.4v7.3c.8 7.9 2.2 11.2 7.8 16.6l3.3 2.8 3.4 2.7c5.8 4.5 8 5.5 15.6 5.8 11.4.8 21 4 31.8 7.6l11.4 3.8C636 751 636 751 642 754c-.4 2.7-.4 2.7-2 6a52 52 0 0 1-7.4 3.7c-2.6 1.3-2.6 1.3-5 3.4-5 3.7-11.5 3.3-17.6 2.9-3.3-2.3-3.3-2.3-6-5l-4.7-.9a41 41 0 0 1-13.5-5.4l-4.6-2.6A1823 1823 0 0 1 545 734l.6-4a75 75 0 0 0 0-13.4l-.3-4-.6-6.7c-.5-7 1.4-10.6 5.7-16.1z"/>
    </g>
  </g>
</svg>
